<svg width="17" height="17" viewBox="0 0 17 17" fill="none" xmlns="http://www.w3.org/2000/svg">
<mask id="mask0_568_585" style="mask-type:alpha" maskUnits="userSpaceOnUse" x="0" y="-1" width="17" height="18">
<rect y="-0.000366211" width="17" height="17" fill="#D9D9D9"/>
</mask>
<g mask="url(#mask0_568_585)">
<path d="M12.9447 9.27877V7.68502H15.9551V9.27877H12.9447ZM13.8301 14.4142L11.4218 12.6434L12.378 11.3329L14.7863 13.1392L13.8301 14.4142ZM12.378 5.66627L11.4218 4.35586L13.8301 2.58502L14.7863 3.86002L12.378 5.66627ZM3.09884 13.7059V10.8017H2.56759C2.1544 10.8017 1.79728 10.6512 1.49624 10.3501C1.1952 10.0491 1.04468 9.69197 1.04468 9.27877V7.72044C1.04468 7.30724 1.1952 6.95013 1.49624 6.64908C1.79728 6.34804 2.1544 6.19752 2.56759 6.19752H5.04676L8.80093 3.93086V13.0684L5.04676 10.8017H4.69259V13.7059H3.09884ZM10.2176 10.9788V6.02044C10.56 6.32738 10.8344 6.69336 11.041 7.11836C11.2476 7.54336 11.3509 8.00377 11.3509 8.49961C11.3509 8.99544 11.2476 9.45586 11.041 9.88086C10.8344 10.3059 10.56 10.6718 10.2176 10.9788Z" fill="black"/>
</g>
</svg>
