<svg width="17" height="17" viewBox="0 0 17 17" fill="none" xmlns="http://www.w3.org/2000/svg">
<mask id="mask0_568_551" style="mask-type:alpha" maskUnits="userSpaceOnUse" x="0" y="-1" width="17" height="18">
<rect y="-0.000366211" width="17" height="17" fill="#D9D9D9"/>
</mask>
<g mask="url(#mask0_568_551)">
<path d="M0.478027 14.9809V11.9173C0.478027 11.4569 0.640354 11.0673 0.965007 10.7486C1.28966 10.4298 1.67629 10.2704 2.1249 10.2704H4.44469C4.62178 10.2704 4.79001 10.3118 4.94938 10.3944C5.10876 10.477 5.24157 10.601 5.34782 10.7663C5.71379 11.2857 6.17126 11.6871 6.72021 11.9704C7.26917 12.2538 7.8624 12.3954 8.4999 12.3954C9.1374 12.3954 9.73358 12.2538 10.2884 11.9704C10.8433 11.6871 11.3037 11.2857 11.6697 10.7663C11.7759 10.601 11.9088 10.477 12.0681 10.3944C12.2275 10.3118 12.3898 10.2704 12.5551 10.2704H14.8749C15.3353 10.2704 15.7249 10.4298 16.0437 10.7486C16.3624 11.0673 16.5218 11.4569 16.5218 11.9173V14.9809H11.103V13.635C10.7016 13.8357 10.2825 13.9921 9.84574 14.1043C9.40893 14.2164 8.96032 14.2725 8.4999 14.2725C8.05129 14.2725 7.60858 14.2164 7.17178 14.1043C6.73497 13.9921 6.30997 13.8357 5.89678 13.635V14.9809H0.478027ZM8.4999 11.3329C8.11032 11.3329 7.74139 11.2385 7.39313 11.0496C7.04487 10.8607 6.75268 10.6128 6.51657 10.3059C6.28046 9.96349 5.98532 9.69787 5.63115 9.50898C5.27699 9.32009 4.89921 9.21974 4.49782 9.20794C4.8756 8.83016 5.46292 8.52027 6.2598 8.27825C7.05667 8.03624 7.80337 7.91523 8.4999 7.91523C9.20824 7.91523 9.96084 8.03624 10.7577 8.27825C11.5546 8.52027 12.1419 8.83016 12.5197 9.20794C12.1065 9.21974 11.7258 9.32009 11.3775 9.50898C11.0292 9.69787 10.7371 9.96349 10.5009 10.3059C10.2766 10.6246 9.9874 10.8755 9.63324 11.0585C9.27907 11.2414 8.90129 11.3329 8.4999 11.3329ZM2.83324 8.85377C2.18393 8.85377 1.62907 8.62356 1.16865 8.16315C0.708236 7.70273 0.478027 7.14787 0.478027 6.49856C0.478027 5.83745 0.708236 5.27964 1.16865 4.82513C1.62907 4.37061 2.18393 4.14336 2.83324 4.14336C3.49435 4.14336 4.05216 4.37061 4.50667 4.82513C4.96119 5.27964 5.18844 5.83745 5.18844 6.49856C5.18844 7.14787 4.96119 7.70273 4.50667 8.16315C4.05216 8.62356 3.49435 8.85377 2.83324 8.85377ZM14.1666 8.85377C13.5173 8.85377 12.9624 8.62356 12.502 8.16315C12.0416 7.70273 11.8114 7.14787 11.8114 6.49856C11.8114 5.83745 12.0416 5.27964 12.502 4.82513C12.9624 4.37061 13.5173 4.14336 14.1666 4.14336C14.8277 4.14336 15.3855 4.37061 15.84 4.82513C16.2945 5.27964 16.5218 5.83745 16.5218 6.49856C16.5218 7.14787 16.2945 7.70273 15.84 8.16315C15.3855 8.62356 14.8277 8.85377 14.1666 8.85377ZM8.4999 6.49856C7.8506 6.49856 7.29574 6.26836 6.83532 5.80794C6.3749 5.34752 6.14469 4.79266 6.14469 4.14336C6.14469 3.48224 6.3749 2.92443 6.83532 2.46992C7.29574 2.0154 7.8506 1.78815 8.4999 1.78815C9.16101 1.78815 9.71883 2.0154 10.1733 2.46992C10.6279 2.92443 10.8551 3.48224 10.8551 4.14336C10.8551 4.79266 10.6279 5.34752 10.1733 5.80794C9.71883 6.26836 9.16101 6.49856 8.4999 6.49856Z" fill="black"/>
</g>
</svg>
