<svg width="17" height="17" viewBox="0 0 17 17" fill="none" xmlns="http://www.w3.org/2000/svg">
<mask id="mask0_568_533" style="mask-type:alpha" maskUnits="userSpaceOnUse" x="0" y="-1" width="17" height="18">
<rect y="-0.000366211" width="17" height="17" fill="#D9D9D9"/>
</mask>
<g mask="url(#mask0_568_533)">
<path d="M5.40295 6.89215V4.99131H11.7152V6.89215H5.40295ZM4.90084 17.1495C4.37811 17.1495 3.93062 16.9634 3.55836 16.5912C3.18612 16.2189 3 15.7714 3 15.2487V2.05038C3 1.52765 3.18612 1.08016 3.55836 0.707918C3.93062 0.335663 4.37811 0.149536 4.90084 0.149536H12.2173C12.74 0.149536 13.1875 0.335663 13.5598 0.707918C13.932 1.08016 14.1181 1.52765 14.1181 2.05038V15.2487C14.1181 15.7714 13.932 16.2189 13.5598 16.5912C13.1875 16.9634 12.74 17.1495 12.2173 17.1495H4.90084ZM4.90084 12.8099H12.2173V4.4892H4.90084V12.8099Z" fill="black"/>
</g>
</svg>
