<svg width="17" height="17" viewBox="0 0 17 17" fill="none" xmlns="http://www.w3.org/2000/svg">
<mask id="mask0_568_580" style="mask-type:alpha" maskUnits="userSpaceOnUse" x="0" y="-1" width="17" height="18">
<rect y="-0.000366211" width="17" height="17" fill="#D9D9D9"/>
</mask>
<g mask="url(#mask0_568_580)">
<path d="M7.57923 16.9996V9.86991C7.35493 9.71195 7.17784 9.51492 7.04798 9.2788C6.91812 9.04269 6.85319 8.78297 6.85319 8.49964C6.85319 8.04675 7.01445 7.65905 7.33696 7.33654C7.65948 7.01402 8.04718 6.85276 8.50006 6.85276C8.95295 6.85276 9.34065 7.01402 9.66317 7.33654C9.98568 7.65905 10.1469 8.04675 10.1469 8.49964C10.1469 8.77117 10.085 9.02203 9.961 9.25224C9.83704 9.48245 9.66881 9.67429 9.45632 9.82776V16.9996H7.57923ZM3.45319 13.7944C2.74486 13.1215 2.19 12.3322 1.78861 11.4265C1.38722 10.5208 1.18652 9.54516 1.18652 8.49964C1.18652 7.48793 1.37862 6.53716 1.76281 5.64736C2.14701 4.75754 2.66842 3.98352 3.32704 3.3253C3.98566 2.66708 4.76014 2.14599 5.65049 1.76204C6.54084 1.37808 7.49218 1.1861 8.50451 1.1861C9.51682 1.1861 10.4657 1.37794 11.3511 1.76162C12.2365 2.1453 13.0092 2.66644 13.669 3.32503C14.3289 3.98363 14.8513 4.7581 15.2362 5.64844C15.6211 6.53876 15.8136 7.49007 15.8136 8.50236C15.8136 9.55124 15.6129 10.5272 15.2115 11.4304C14.8101 12.3335 14.2553 13.1215 13.5469 13.7944L12.2188 12.4663C12.7456 11.972 13.1636 11.3851 13.4727 10.7055C13.7819 10.0259 13.9365 9.29061 13.9365 8.49964C13.9365 6.98853 13.4082 5.70467 12.3516 4.64808C11.295 3.59148 10.0112 3.06318 8.50006 3.06318C6.98895 3.06318 5.7051 3.59148 4.6485 4.64808C3.59191 5.70467 3.06361 6.98853 3.06361 8.49964C3.06361 9.29061 3.21667 10.0251 3.5228 10.7032C3.82892 11.3813 4.24842 11.969 4.78132 12.4663L3.45319 13.7944ZM5.45423 11.7934C5.00562 11.3802 4.65441 10.892 4.40059 10.3287C4.14677 9.76543 4.01986 9.15574 4.01986 8.49964C4.01986 7.24825 4.45371 6.1887 5.32142 5.32099C6.18913 4.45328 7.24868 4.01943 8.50006 4.01943C9.75145 4.01943 10.811 4.45328 11.6787 5.32099C12.5464 6.1887 12.9803 7.24755 12.9803 8.49755C12.9803 9.16005 12.8534 9.77169 12.5995 10.3324C12.3457 10.8932 11.9945 11.3802 11.5459 11.7934L10.2178 10.4653C10.4893 10.2292 10.7048 9.93943 10.8641 9.5961C11.0235 9.25276 11.1032 8.88727 11.1032 8.49964C11.1032 7.78377 10.8483 7.17095 10.3385 6.66118C9.82875 6.1514 9.21593 5.89651 8.50006 5.89651C7.7842 5.89651 7.17138 6.15129 6.6616 6.66086C6.15183 7.17043 5.89694 7.783 5.89694 8.49856C5.89694 8.88886 5.97663 9.25519 6.136 9.59755C6.29538 9.93992 6.51083 10.2292 6.78236 10.4653L5.45423 11.7934Z" fill="black"/>
</g>
</svg>
