<svg width="17" height="17" viewBox="0 0 17 17" fill="none" xmlns="http://www.w3.org/2000/svg">
<mask id="mask0_568_595" style="mask-type:alpha" maskUnits="userSpaceOnUse" x="0" y="-1" width="17" height="18">
<rect y="-0.000366211" width="17" height="17" fill="#D9D9D9"/>
</mask>
<g mask="url(#mask0_568_595)">
<path d="M7.57926 15.4413V13.5819H13.5824V8.4465C13.5824 7.04164 13.0866 5.84928 12.0949 4.86942C11.1032 3.88956 9.90496 3.39963 8.5001 3.39963C7.09524 3.39963 5.89992 3.88956 4.91416 4.86942C3.9284 5.84928 3.43551 7.03918 3.43551 8.4391V12.9975H2.49697C2.04408 12.9975 1.65638 12.8363 1.33387 12.5138C1.01136 12.1913 0.850098 11.8036 0.850098 11.3507V9.934C0.850098 9.66248 0.915028 9.41161 1.04489 9.1814C1.17475 8.95119 1.35183 8.75935 1.57614 8.60588L1.62926 7.77359C1.73169 6.88791 1.98455 6.06736 2.38785 5.31193C2.79116 4.55651 3.29975 3.89841 3.91364 3.33765C4.52753 2.77688 5.22406 2.33713 6.00322 2.01838C6.78239 1.69963 7.61468 1.54025 8.5001 1.54025C9.38551 1.54025 10.2208 1.69963 11.0058 2.01838C11.7909 2.33713 12.4904 2.77393 13.1043 3.32879C13.7182 3.88366 14.2258 4.54 14.6272 5.29784C15.0286 6.05566 15.2824 6.87271 15.3886 7.74899L15.4418 8.54893C15.6661 8.69095 15.8402 8.87447 15.9642 9.09948C16.0881 9.32449 16.1501 9.56725 16.1501 9.82775V11.4569C16.1501 11.7284 16.0881 11.9764 15.9642 12.2007C15.8402 12.425 15.6661 12.608 15.4418 12.7496V13.5819C15.4418 14.1014 15.2617 14.5411 14.9017 14.9012C14.5416 15.2613 14.1018 15.4413 13.5824 15.4413H7.57926ZM6.37634 10.5007C6.11579 10.5007 5.89402 10.4125 5.71104 10.2363C5.52805 10.06 5.43656 9.84163 5.43656 9.58108C5.43656 9.32053 5.52805 9.09876 5.71104 8.91577C5.89402 8.73279 6.11579 8.64129 6.37634 8.64129C6.63689 8.64129 6.85529 8.73279 7.03155 8.91577C7.2078 9.09876 7.29593 9.32053 7.29593 9.58108C7.29593 9.84163 7.2078 10.06 7.03155 10.2363C6.85529 10.4125 6.63689 10.5007 6.37634 10.5007ZM10.644 10.5007C10.3835 10.5007 10.1617 10.4125 9.97874 10.2363C9.79576 10.06 9.70426 9.84163 9.70426 9.58108C9.70426 9.32053 9.79576 9.09876 9.97874 8.91577C10.1617 8.73279 10.3835 8.64129 10.644 8.64129C10.9046 8.64129 11.123 8.73279 11.2993 8.91577C11.4755 9.09876 11.5636 9.32053 11.5636 9.58108C11.5636 9.84163 11.4755 10.06 11.2993 10.2363C11.123 10.4125 10.9046 10.5007 10.644 10.5007ZM4.05531 9.17254C3.96086 7.8031 4.35088 6.60779 5.22535 5.58661C6.09981 4.56543 7.20307 4.05484 8.53514 4.05484C9.67794 4.05484 10.6661 4.43557 11.4997 5.19702C12.3333 5.95848 12.8445 6.91178 13.0334 8.05692C11.9741 8.04487 10.9774 7.79984 10.0431 7.32185C9.10888 6.84384 8.35843 6.16213 7.79176 5.27671C7.52024 6.18574 7.04957 6.97378 6.37977 7.64083C5.70997 8.30788 4.93515 8.81845 4.05531 9.17254Z" fill="black"/>
</g>
</svg>
