<svg width="17" height="17" viewBox="0 0 17 17" fill="none" xmlns="http://www.w3.org/2000/svg">
<mask id="mask0_568_574" style="mask-type:alpha" maskUnits="userSpaceOnUse" x="0" y="-1" width="17" height="18">
<rect y="-0.000366211" width="17" height="17" fill="#D9D9D9"/>
</mask>
<g mask="url(#mask0_568_574)">
<path d="M13.8126 16.9111L12.5022 15.6007L13.3876 14.6975H10.7491V12.8204H13.3876L12.4845 11.9173L13.8126 10.6069L16.9647 13.759L13.8126 16.9111ZM2.72718 14.6975C2.19593 14.6975 1.75027 14.5175 1.3902 14.1574C1.03013 13.7974 0.850098 13.3517 0.850098 12.8204V4.17878C0.850098 3.64753 1.03013 3.20187 1.3902 2.8418C1.75027 2.48173 2.19593 2.3017 2.72718 2.3017H14.273C14.8043 2.3017 15.2499 2.48173 15.61 2.8418C15.9701 3.20187 16.1501 3.64753 16.1501 4.17878V10.2527C15.8077 10.0402 15.4388 9.88086 15.0433 9.77461C14.6478 9.66836 14.2435 9.61524 13.8303 9.61524C12.5789 9.61524 11.5164 10.052 10.6428 10.9257C9.7692 11.7993 9.33239 12.8618 9.33239 14.1132V14.6975H2.72718ZM8.5001 9.61524L14.273 6.09128V4.17878L8.5001 7.79128L2.72718 4.17878V6.09128L8.5001 9.61524Z" fill="black"/>
</g>
</svg>
