<svg width="17" height="17" viewBox="0 0 17 17" fill="none" xmlns="http://www.w3.org/2000/svg">
<mask id="mask0_568_569" style="mask-type:alpha" maskUnits="userSpaceOnUse" x="0" y="-1" width="17" height="18">
<rect y="-0.000366211" width="17" height="17" fill="#D9D9D9"/>
</mask>
<g mask="url(#mask0_568_569)">
<path d="M3.43543 15.4413C2.91924 15.4413 2.47734 15.2575 2.10973 14.8899C1.74214 14.5223 1.55835 14.0804 1.55835 13.5642V3.43501C1.55835 2.91881 1.74214 2.47691 2.10973 2.10932C2.47734 1.74172 2.91924 1.55792 3.43543 1.55792H13.5646C14.0808 1.55792 14.5227 1.74172 14.8903 2.10932C15.2579 2.47691 15.4417 2.91881 15.4417 3.43501V13.5642C15.4417 14.0804 15.2579 14.5223 14.8903 14.8899C14.5227 15.2575 14.0808 15.4413 13.5646 15.4413H3.43543ZM8.53543 11.1204C9.01946 11.1204 9.46807 10.9906 9.88127 10.7308C10.2945 10.4711 10.625 10.117 10.8729 9.66834H13.5646V3.43501H3.43543V9.66834H6.16252C6.41043 10.117 6.74689 10.4711 7.17189 10.7308C7.59689 10.9906 8.05141 11.1204 8.53543 11.1204ZM8.48231 10.1996L5.2771 6.99438L6.48127 5.79021L7.54377 6.85271V3.78917H9.42085V6.85271L10.4833 5.79021L11.6875 6.99438L8.48231 10.1996Z" fill="black"/>
</g>
</svg>
