<svg width="17" height="17" viewBox="0 0 17 17" fill="none" xmlns="http://www.w3.org/2000/svg">
<path d="M6.14484 16.1496L5.82609 13.759C5.74345 13.7118 5.65491 13.6616 5.56047 13.6085C5.46602 13.5554 5.37748 13.4993 5.29484 13.4403L3.02817 14.3788L0.690674 10.235L2.56776 8.78296V8.14546L0.690674 6.72879L3.02817 2.62046L5.22401 3.52358C5.31845 3.46456 5.42175 3.40553 5.5339 3.3465C5.64606 3.28747 5.74935 3.22845 5.8438 3.16942L6.14484 0.814209H10.8553L11.1563 3.18713C11.2507 3.24615 11.354 3.30518 11.4662 3.36421C11.5783 3.42324 11.6816 3.48226 11.7761 3.54129L13.9719 2.62046L16.3094 6.72879L14.3969 8.18088V8.81838L16.274 10.235L13.9365 14.3788L11.6875 13.4403C11.6049 13.4875 11.5193 13.5376 11.4308 13.5908C11.3422 13.6439 11.2566 13.6941 11.174 13.7413L10.8553 16.1496H6.14484ZM8.48234 11.4392C9.30873 11.4392 10.0112 11.15 10.5896 10.5715C11.1681 9.99303 11.4573 9.2906 11.4573 8.46421C11.4573 7.63782 11.1681 6.93539 10.5896 6.35692C10.0112 5.77845 9.30873 5.48921 8.48234 5.48921C7.65595 5.48921 6.95352 5.77845 6.37505 6.35692C5.79658 6.93539 5.50734 7.63782 5.50734 8.46421C5.50734 9.2906 5.79658 9.99303 6.37505 10.5715C6.95352 11.15 7.65595 11.4392 8.48234 11.4392Z" fill="black"/>
</svg>
